<svg width="900" height="600" viewBox="0 0 900 600" fill="none" xmlns="http://www.w3.org/2000/svg">
  <defs>
    <linearGradient id="bg3" x1="0" y1="0" x2="900" y2="600" gradientUnits="userSpaceOnUse">
      <stop stop-color="#10172F"/>
      <stop offset="1" stop-color="#13132A"/>
    </linearGradient>
    <linearGradient id="stage" x1="205" y1="161" x2="700" y2="494" gradientUnits="userSpaceOnUse">
      <stop stop-color="#FF59A8"/>
      <stop offset="1" stop-color="#6EE2FF"/>
    </linearGradient>
  </defs>

  <rect width="900" height="600" rx="22" fill="url(#bg3)"/>
  <rect x="88" y="88" width="724" height="424" rx="20" fill="#182042" stroke="#2A3D84"/>

  <rect x="228" y="396" width="442" height="70" rx="18" fill="#2A3367"/>
  <circle cx="290" cy="296" r="32" fill="#FF6CB5"/>
  <rect x="262" y="328" width="56" height="74" rx="20" fill="#FF6CB5"/>

  <circle cx="450" cy="282" r="36" fill="#78E6FF"/>
  <rect x="418" y="318" width="64" height="88" rx="24" fill="#78E6FF"/>

  <circle cx="612" cy="300" r="30" fill="#FFB0D7"/>
  <rect x="586" y="330" width="52" height="72" rx="20" fill="#FFB0D7"/>

  <path d="M190 210L218 244L246 210" stroke="url(#stage)" stroke-width="8" stroke-linecap="round"/>
  <path d="M654 210L682 244L710 210" stroke="url(#stage)" stroke-width="8" stroke-linecap="round"/>

  <circle cx="267" cy="176" r="12" fill="#F7D047"/>
  <circle cx="450" cy="166" r="14" fill="#F7D047"/>
  <circle cx="633" cy="176" r="12" fill="#F7D047"/>

  <text x="450" y="546" fill="#FAFDFF" font-family="Arial, sans-serif" font-size="34" font-weight="700" text-anchor="middle">MATCH, VOTE, WIN PRIZES</text>
</svg>
